#!OML:ASF H:\Terrain\Patient Classification 1\Animal2\Wednesday\Animal2.ASF
:FULLY-SPECIFIED
:DEGREES
497
root 9.41311 17.5246 26.086 0.0988609 -2.06442 -2.74137
lowerback 3.57603 -0.485756 3.67154
upperback -0.45425 -0.453568 1.29494
thorax -2.49178 -0.26817 -0.701017
lowerneck 0.960527 6.46799 17.4379
upperneck 2.5905 9.40317 -19.8942
head 2.40919 4.71009 -8.8016
rclavicle -3.75827e-015 7.95139e-016
rhumerus -25.742 4.45571 -87.1256
rradius 29.9354
rwrist 8.86662
rhand -16.7937 19.6049
rfingers 7.12502
rthumb 9.43435 -10.1639
lclavicle -3.75827e-015 7.95139e-016
lhumerus -43.497 0.404922 86.6679
lradius 19.9439
lwrist 4.40276
lhand -21.4446 23.7067
lfingers 7.12502
lthumb 4.94503 53.629
rfemur -5.37721 -4.73932 26.2995
rtibia 25.5554
rfoot -23.1746 3.53206
rtoes 5.28998
lfemur -28.9131 7.2221 -18.1961
ltibia 52.74
lfoot -12.2226 -2.35022
ltoes -15.6747
498
root 9.42145 17.5216 26.2336 0.0261193 -2.2553 -2.83745
lowerback 3.98996 -0.514712 3.75721
upperback -0.628327 -0.458793 1.39159
thorax -2.90454 -0.279158 -0.644436
lowerneck 1.40184 6.47309 17.2591
upperneck 2.48394 9.4603 -19.8974
head 2.30524 4.76003 -8.78533
rclavicle 3.86543e-015 -3.97569e-016
rhumerus -25.6542 5.30748 -87.2547
rradius 30.5543
rwrist 8.23404
rhand -16.7466 19.6532
rfingers 7.12502
rthumb 9.47989 -10.1136
lclavicle 3.86543e-015 -3.97569e-016
lhumerus -44.1779 1.58192 86.0688
lradius 19.7568
lwrist 3.56928
lhand -21.5481 23.1455
lfingers 7.12502
lthumb 4.84517 53.0701
rfemur -4.40932 -4.76367 26.2943
rtibia 24.9558
rfoot -23.2689 3.46536
rtoes 4.29221
lfemur -29.1239 6.785 -18.1561
ltibia 50.3801
lfoot -12.035 -1.43741
ltoes -15.6889
499
root 9.4293 17.5197 26.3858 0.173062 -2.44122 -2.93458
lowerback 4.17877 -0.505861 3.95406
upperback -0.847348 -0.418768 1.41103
thorax -3.23746 -0.269942 -0.733907
lowerneck 1.59022 6.49135 17.2313
upperneck 2.535 9.51845 -19.8859
head 2.29653 4.79766 -8.77973
rclavicle -1.4898e-014 2.68359e-014
rhumerus -25.4897 5.90855 -87.4183
rradius 31.1067
rwrist 7.41305
rhand -16.8511 19.5274
rfingers 7.12502
rthumb 9.37903 -10.244
lclavicle -1.4898e-014 2.68359e-014
lhumerus -44.8902 2.31978 85.6029
lradius 19.7695
lwrist 3.01618
lhand -21.466 22.8614
lfingers 7.12502
lthumb 4.92438 52.7842
rfemur -3.65395 -4.772 26.3009
rtibia 24.3034
rfoot -23.3671 3.68605
rtoes 4.17991
lfemur -29.4783 6.33007 -18.1091
ltibia 47.87
lfoot -11.846 -0.56697
ltoes -15.4245
500
root 9.43353 17.5227 26.5366 0.41498 -2.7511 -2.741
lowerback 4.2246 -0.431 3.8176
upperback -1.07909 -0.317732 1.36074
thorax -3.4982 -0.224038 -0.71466
lowerneck 1.81417 6.49207 17.547
upperneck 2.60632 9.59008 -20.3571
head 2.33291 4.84468 -8.99858
rclavicle -3.02312e-015 -7.95139e-016
rhumerus -25.2468 6.60736 -87.617
rradius 31.3577
rwrist 6.44943
rhand -17.3083 19.6658
rfingers 7.12502
rthumb 8.93783 -10.1249
lclavicle -3.02312e-015 -7.95139e-016
lhumerus -45.5618 1.98034 85.8936
lradius 19.8803
lwrist 3.688
lhand -21.1408 23.5109
lfingers 7.12502
lthumb 5.23836 53.4261
rfemur -2.98566 -4.78682 25.9721
rtibia 23.5667
rfoot -23.3486 4.14502
rtoes 4.27752
lfemur -29.8378 5.85056 -18.3194
ltibia 45.2622
lfoot -11.7001 0.21967
ltoes -13.623
501
root 9.43753 17.5191 26.6866 0.556066 -3.14849 -2.72215
lowerback 4.10059 -0.298372 3.85525
upperback -1.02428 -0.147701 1.34763
thorax -3.36467 -0.137814 -0.762383
lowerneck 1.59438 6.59015 17.8046
upperneck 2.81001 9.74897 -20.8098
head 2.49816 4.90981 -9.17785
rclavicle 6.76178e-015 -5.36719e-015
rhumerus -24.4651 7.23526 -87.7066
rradius 31.2883
rwrist 5.79624
rhand -17.956 20.0339
rfingers 7.12502
rthumb 8.3128 -9.78249
lclavicle 6.76178e-015 -5.36719e-015
lhumerus -45.7559 1.98923 85.9457
lradius 19.906
lwrist 3.76115
lhand -20.8762 23.9706
lfingers 7.12502
lthumb 5.49385 53.8794
rfemur -2.25059 -4.6812 25.8325
rtibia 22.8515
rfoot -23.4673 4.42504
rtoes 3.78557
lfemur -30.0447 5.4789 -18.2772
ltibia 42.6159
lfoot -11.5814 1.46448
ltoes -16.2007
